<svg width="1296" height="298" viewBox="0 0 1296 298" fill="none" xmlns="http://www.w3.org/2000/svg">
<g clip-path="url(#clip0_1_184005)">
<path d="M484.704 91.6226C483.015 91.5849 481.334 91.8954 479.771 92.5344C478.206 93.1735 476.789 94.1276 475.609 95.3375C474.429 96.5474 473.511 97.9872 472.912 99.5671C472.313 101.147 472.044 102.834 472.124 104.522V198.903C472.124 232.731 448.324 257.282 415.483 257.282C383.221 257.282 363.973 236.499 363.973 201.657V104.522C364.013 102.817 363.706 101.122 363.073 99.539C362.437 97.956 361.489 96.5181 360.283 95.3123C359.078 94.1065 357.64 93.1579 356.057 92.5237C354.473 91.8896 352.779 91.5829 351.074 91.6226C349.385 91.5849 347.706 91.8954 346.141 92.5344C344.576 93.1735 343.159 94.1276 341.979 95.3375C340.799 96.5474 339.881 97.9872 339.282 99.5671C338.683 101.147 338.413 102.834 338.494 104.522V204.758C338.494 251.312 367.771 281.4 413.077 281.4C437.542 281.4 457.717 272.067 472.124 254.239V265.834C472.124 269.216 473.467 272.46 475.86 274.853C478.25 277.245 481.494 278.589 484.878 278.589C488.26 278.589 491.504 277.245 493.896 274.853C496.289 272.46 497.632 269.216 497.632 265.834V104.522C497.668 102.816 497.358 101.12 496.72 99.5367C496.083 97.9538 495.131 96.5162 493.924 95.3109C492.714 94.1055 491.276 93.1573 489.69 92.5234C488.107 91.8896 486.411 91.583 484.704 91.6226Z" fill="#58595B"/>
<path d="M632.8 88.8694C606.132 88.8694 583.291 100.464 564.796 123.335V28.6927C564.832 26.9864 564.522 25.2907 563.886 23.7076C563.247 22.1246 562.297 20.687 561.088 19.4818C559.88 18.2763 558.44 17.3282 556.856 16.6942C555.271 16.0603 553.575 15.7539 551.868 15.7934C550.179 15.7558 548.5 16.0661 546.935 16.7052C545.37 17.3443 543.955 18.2984 542.775 19.5083C541.595 20.7182 540.676 22.158 540.076 23.7379C539.477 25.318 539.208 27.0045 539.288 28.6927V265.661C539.269 267.364 539.591 269.053 540.233 270.632C540.876 272.209 541.827 273.641 543.032 274.846C544.236 276.05 545.668 277.002 547.247 277.644C548.824 278.288 550.513 278.608 552.216 278.589C553.896 278.582 555.557 278.24 557.103 277.583C558.649 276.927 560.049 275.968 561.219 274.765C562.39 273.561 563.31 272.135 563.925 270.572C564.539 269.009 564.836 267.34 564.796 265.661V248.268C582.855 270.298 605.697 281.43 632.8 281.43C676.918 281.43 722.66 245.428 722.66 185.164V184.469C722.544 124.61 676.976 88.8694 632.8 88.8694ZM631.09 113.653C667.903 113.653 695.673 144.38 695.673 185.135V185.831C695.673 228.152 669.73 256.617 631.09 256.617C598.712 256.617 563.753 229.399 563.753 185.484V184.787C563.753 140.843 598.712 113.653 631.09 113.653Z" fill="#58595B"/>
<path d="M844.635 90.2316C824.025 90.2316 796.429 102.899 778.341 130.378V104.522C778.341 101.14 776.998 97.8955 774.605 95.5036C772.214 93.1116 768.97 91.7679 765.587 91.7679C762.205 91.7679 758.961 93.1116 756.568 95.5036C754.176 97.8955 752.832 101.14 752.832 104.522V265.719C752.797 267.427 753.106 269.123 753.745 270.708C754.382 272.292 755.332 273.732 756.539 274.94C757.749 276.147 759.187 277.097 760.771 277.734C762.356 278.373 764.054 278.683 765.76 278.647C767.446 278.659 769.117 278.332 770.671 277.681C772.226 277.033 773.634 276.074 774.809 274.867C775.984 273.659 776.904 272.225 777.51 270.654C778.118 269.082 778.401 267.403 778.341 265.719V200.961C778.341 143.944 812.778 120.407 845.011 117.45C848.523 117.329 851.847 115.839 854.273 113.299C856.702 110.758 858.037 107.369 857.997 103.855C858.04 102.077 857.725 100.307 857.073 98.6524C856.419 96.9974 855.441 95.49 854.195 94.2199C852.948 92.9495 851.46 91.9421 849.819 91.257C848.177 90.572 846.413 90.2234 844.635 90.2316Z" fill="#58595B"/>
<path d="M891.825 22.3728C889.897 22.3534 887.985 22.7188 886.2 23.4476C884.416 24.1763 882.793 25.2539 881.431 26.617C880.067 27.9803 878.99 29.6016 878.261 31.3864C877.533 33.1711 877.167 35.0834 877.185 37.0112V42.8086C877.185 44.7242 877.565 46.6206 878.302 48.3887C879.04 50.1566 880.121 51.7609 881.482 53.1085C882.844 54.4563 884.458 55.5208 886.234 56.2406C888.009 56.9604 889.909 57.3212 891.825 57.302C893.764 57.3481 895.692 57.0086 897.5 56.3026C899.307 55.5967 900.955 54.5388 902.35 53.1903C903.743 51.8418 904.857 50.2295 905.621 48.4471C906.388 46.6649 906.791 44.7483 906.81 42.8086V37.0112C906.757 33.0851 905.15 29.34 902.342 26.5964C899.532 23.8528 895.75 22.334 891.825 22.3728Z" fill="#58595B"/>
<path d="M891.825 91.6226C890.146 91.622 888.484 91.9577 886.936 92.6099C885.388 93.2619 883.987 94.2172 882.815 95.4192C881.642 96.6215 880.722 98.0462 880.109 99.6095C879.496 101.173 879.202 102.843 879.244 104.522V265.718C879.21 267.426 879.52 269.122 880.157 270.708C880.794 272.291 881.744 273.732 882.953 274.939C884.16 276.147 885.599 277.097 887.185 277.735C888.768 278.372 890.466 278.682 892.172 278.646C893.863 278.681 895.542 278.366 897.104 277.724C898.667 277.082 900.082 276.123 901.259 274.91C902.437 273.698 903.352 272.256 903.948 270.675C904.544 269.093 904.807 267.406 904.724 265.718V104.522C904.763 102.817 904.457 101.122 903.823 99.539C903.19 97.956 902.24 96.5181 901.034 95.3123C899.828 94.1065 898.391 93.1579 896.807 92.5237C895.226 91.8896 893.53 91.5829 891.825 91.6226Z" fill="#58595B"/>
<path d="M1091.49 91.6225C1089.8 91.589 1088.13 91.9023 1086.56 92.5431C1085 93.184 1083.59 94.1388 1082.41 95.3482C1081.24 96.5577 1080.32 97.996 1079.72 99.574C1079.13 101.152 1078.86 102.836 1078.94 104.522V198.903C1078.94 232.731 1055.11 257.282 1022.27 257.282C990.034 257.282 970.787 236.499 970.787 201.657V104.522C970.822 102.816 970.512 101.12 969.876 99.5367C969.239 97.9537 968.287 96.5162 967.078 95.3107C965.87 94.1055 964.43 93.1573 962.846 92.5233C961.261 91.8895 959.565 91.583 957.859 91.6225C956.169 91.5849 954.49 91.8952 952.925 92.5344C951.36 93.1735 949.945 94.1276 948.765 95.3375C947.585 96.5474 946.667 97.9871 946.066 99.567C945.467 101.147 945.199 102.834 945.279 104.522V204.758C945.279 251.312 974.555 281.4 1019.86 281.4C1044.33 281.4 1064.5 272.067 1078.94 254.239V265.834C1078.9 267.54 1079.2 269.236 1079.84 270.822C1080.47 272.405 1081.42 273.844 1082.63 275.053C1083.83 276.261 1085.27 277.213 1086.85 277.85C1088.44 278.488 1090.13 278.798 1091.84 278.762C1093.52 278.774 1095.19 278.447 1096.75 277.797C1098.3 277.148 1099.71 276.189 1100.88 274.982C1102.06 273.775 1102.98 272.341 1103.59 270.769C1104.19 269.197 1104.48 267.518 1104.42 265.834V104.522C1104.45 102.816 1104.14 101.12 1103.51 99.5367C1102.87 97.9537 1101.92 96.5162 1100.71 95.3107C1099.5 94.1055 1098.06 93.1573 1096.48 92.5233C1094.89 91.8895 1093.19 91.583 1091.49 91.6225Z" fill="#58595B"/>
<path d="M1292.66 257.863L1232.8 183.077L1290.25 112.03C1292.14 109.725 1293.16 106.834 1293.15 103.855C1293.16 100.668 1291.92 97.6044 1289.7 95.3185C1287.48 93.0326 1284.45 91.7062 1281.27 91.6229C1279.17 91.7053 1277.13 92.2719 1275.29 93.2778C1273.46 94.2836 1271.88 95.7018 1270.69 97.4203L1216.97 164.931L1162.74 96.6087C1161.54 95.0426 1159.99 93.7767 1158.22 92.9115C1156.45 92.0461 1154.5 91.6049 1152.53 91.6229C1149.25 91.5843 1146.08 92.8504 1143.73 95.1438C1141.38 97.437 1140.03 100.57 1139.98 103.855C1140.04 107.018 1141.23 110.054 1143.35 112.407L1200.39 183.396L1140.21 258.211C1138.32 260.525 1137.3 263.425 1137.32 266.414C1137.31 269.596 1138.54 272.656 1140.76 274.941C1142.97 277.227 1145.99 278.557 1149.17 278.647C1151.27 278.569 1153.32 278.005 1155.16 276.999C1157 275.992 1158.58 274.572 1159.78 272.849L1216.13 201.715L1273.12 273.661C1274.32 275.228 1275.86 276.493 1277.63 277.358C1279.4 278.223 1281.35 278.664 1283.32 278.647C1286.61 278.686 1289.77 277.419 1292.13 275.125C1294.48 272.833 1295.83 269.7 1295.87 266.414C1295.85 263.272 1294.71 260.242 1292.66 257.863Z" fill="#58595B"/>
<path d="M303.218 286.01L306.695 287.922L305.014 285.632C295.463 272.445 289.152 257.194 286.595 241.114C284.035 225.034 285.302 208.578 290.29 193.077C300.5 160.568 299.226 125.536 286.678 93.8542C274.13 62.1729 251.071 35.7682 221.37 19.0669C191.667 2.3657 157.126 -3.61674 123.537 2.12253C89.9482 7.86181 59.3533 24.9739 36.8816 50.59C14.4099 76.2061 1.42764 108.769 0.111209 142.819C-1.20522 176.869 9.22423 210.337 29.6511 237.612C50.0779 264.886 79.2604 284.309 112.306 292.626C145.352 300.941 180.251 297.642 211.155 283.284C225.627 276.444 241.513 273.125 257.513 273.598C273.513 274.071 289.174 278.325 303.218 286.01ZM94.7721 97.2756C106.405 85.0911 121.833 77.2219 138.527 74.9588C155.22 72.6957 172.186 76.1729 186.644 84.8203C201.101 93.4676 212.19 106.772 218.092 122.55C223.994 138.328 224.358 155.643 219.126 171.657C216.464 179.559 215.887 188.016 217.45 196.207C219.015 204.397 222.668 212.047 228.054 218.412L228.837 219.311L227.851 218.643C220.926 214.09 212.939 211.408 204.668 210.86C196.398 210.311 188.127 211.914 180.66 215.514C164.989 223.016 147.184 224.789 130.341 220.523C113.498 216.258 98.6824 206.225 88.471 192.166C78.2596 178.109 73.2982 160.917 74.4493 143.581C75.6006 126.244 82.7916 109.859 94.7721 97.2756Z" fill="#DB2726"/>
</g>
<defs>
<clipPath id="clip0_1_184005">
<rect width="1295.87" height="298" fill="white"/>
</clipPath>
</defs>
</svg>
